<svg id="Layer_1" data-name="Layer 1" xmlns="http://www.w3.org/2000/svg" viewBox="0 0 1000 1000"><defs><style>.cls-1{fill:#adecf7;}.cls-2{fill:#0f0f0f;}.cls-10,.cls-11,.cls-12,.cls-13,.cls-14,.cls-15,.cls-16,.cls-18,.cls-19,.cls-2,.cls-20,.cls-21,.cls-22,.cls-23,.cls-4,.cls-5,.cls-6,.cls-7,.cls-9{fill-rule:evenodd;}.cls-21,.cls-3{fill:gray;}.cls-4,.cls-8{fill:#1a1a1a;}.cls-5{fill:#fff;}.cls-6{fill:#989898;}.cls-7{fill:#666;}.cls-17,.cls-9{fill:#b20d0d;}.cls-10{fill:#121212;}.cls-11{fill:#2e333d;}.cls-12{fill:#333;}.cls-13{fill:#e5e5e5;}.cls-14{fill:#292929;}.cls-15{fill:#c61414;}.cls-16{fill:#4d4d4d;}.cls-18{fill:#cbcbcb;}.cls-19{fill:#820a0a;}.cls-20{fill:#b2b2b2;}.cls-22{fill:#990019;}.cls-23{fill:#ba2525;}</style></defs><circle class="cls-1" cx="500" cy="500" r="371.6"/><g id="_9" data-name="9"><path class="cls-2" d="M605.73,666.72H573.87c-27,0-49-33.72-49-75.31s21.94-75.32,49-75.32h31.86c27.06,0,49,33.73,49,75.32S632.79,666.72,605.73,666.72Z"/><path class="cls-2" d="M186.21,666.72H154.35c-27.06,0-49-33.72-49-75.31s21.93-75.32,49-75.32h31.86c27,0,49,33.73,49,75.32S213.26,666.72,186.21,666.72Z"/><polygon class="cls-2" points="287.56 609.58 783.16 609.58 897.31 592.96 919.98 559.09 912.55 479.4 287.56 479.4 287.56 609.58"/><rect class="cls-3" x="118.7" y="592.96" width="221.75" height="16.62"/><path class="cls-2" d="M414.27,666.72H382.4c-27,0-49-33.71-49-75.31s21.93-75.31,49-75.31h31.87C443.73,516.1,444.69,666.72,414.27,666.72Z"/><path class="cls-4" d="M414.27,666.72c27,0,49-33.83,49-75.31s-22-75.31-49-75.31-49,33.83-49,75.31S387.28,666.72,414.27,666.72Z"/><path class="cls-5" d="M414.27,644.57c19,0,34.51-23.84,34.51-53.06s-15.5-53.07-34.51-53.07-34.52,23.84-34.52,53.07S395.26,644.57,414.27,644.57Z"/><path class="cls-6" d="M414.27,637c16.3,0,29.6-20.45,29.6-45.52S430.57,546,414.27,546s-29.61,20.44-29.61,45.51S398,637,414.27,637Z"/><path class="cls-4" d="M408.54,636.17c-13.61-4.1-23.88-22.54-23.88-44.66s10.27-40.57,23.88-44.67c13.61,4.1,23.88,22.54,23.88,44.67S422.15,632.07,408.54,636.17Z"/><path class="cls-7" d="M408.14,636c13.4-4.34,23.47-22.63,23.47-44.54S421.54,551.31,408.14,547c-7.9,2.56-14.64,10-18.85,20.09,1.93,2.21,3,6.77.49,13.57-1.56,4.16-3.34,6.08-5,6.61-.08,1.4-.13,2.82-.13,4.27s0,2.86.13,4.26c1.65.53,3.42,2.44,5,6.6,2.55,6.8,1.44,11.37-.49,13.58,4.21,10.13,10.95,17.53,18.85,20.09ZM402,569.76c-9.6,0-8.29-13.26-5-14.37a15.52,15.52,0,0,1,10,0c3.25,1.07,4.61,14.37-5,14.37Zm12.24,10.87c-4.8-12.77,3.32-17.66,5.58-13.86a43.53,43.53,0,0,1,5,13.35c1,4.87-5.78,13.33-10.59.51Zm0,21.74c4.79-12.77,11.61-4.4,10.59.51a43.39,43.39,0,0,1-5,13.36c-2.22,3.8-10.39-1-5.58-13.87ZM407,627.62a15.49,15.49,0,0,1-10,0c-3.26-1.07-4.61-14.37,5-14.37S410.3,626.51,407,627.62Z"/><path class="cls-5" d="M410.31,636.61c14.48-3,25.64-22,25.64-45.11s-11.16-42.13-25.64-45.1c-8.45,1.73-15.77,8.94-20.4,19.23,3-1,8.28,4.15,4.21,15-3.12,8.3-7.08,7.68-9.2,4.88q-.26,2.94-.26,6t.26,6c2.12-2.8,6.08-3.44,9.2,4.87,4.07,10.84-1.15,16-4.21,15,4.63,10.29,11.95,17.51,20.4,19.24Zm-3.95-66.85c-9.59,0-8.29-13.26-5-14.37a15.49,15.49,0,0,1,10,0c3.25,1.07,4.61,14.37-5,14.37Zm12.24,10.87c-4.8-12.77,3.33-17.66,5.59-13.86a44,44,0,0,1,5,13.35c1,4.87-5.79,13.33-10.6.51Zm0,21.74c4.8-12.77,11.61-4.4,10.6.51a43.91,43.91,0,0,1-5,13.36c-2.23,3.8-10.4-1-5.59-13.87Zm-7.23,25.25a15.49,15.49,0,0,1-10,0c-3.25-1.07-4.61-14.37,5-14.37S414.64,626.51,411.37,627.62Z"/><path class="cls-7" d="M406.08,582.2c3.53,0,6.39,4.39,6.39,9.81s-2.86,9.81-6.39,9.81-6.38-4.39-6.38-9.81S402.56,582.2,406.08,582.2Z"/><path class="cls-2" d="M840.31,666.72H808.45c-27.05,0-49-33.71-49-75.31s21.94-75.31,49-75.31h31.86C869.78,516.1,870.74,666.72,840.31,666.72Z"/><ellipse class="cls-8" cx="840.31" cy="591.41" rx="48.99" ry="75.31"/><path class="cls-5" d="M840.31,644.57c19,0,34.52-23.84,34.52-53.06s-15.51-53.07-34.52-53.07-34.51,23.84-34.51,53.07S821.31,644.57,840.31,644.57Z"/><path class="cls-6" d="M840.31,637c16.31,0,29.61-20.45,29.61-45.52S856.62,546,840.31,546s-29.6,20.44-29.6,45.51S824,637,840.31,637Z"/><path class="cls-4" d="M834.59,636.17c-13.61-4.1-23.88-22.54-23.88-44.66s10.27-40.57,23.88-44.67c13.61,4.1,23.88,22.54,23.88,44.67S848.2,632.07,834.59,636.17Z"/><path class="cls-7" d="M834.19,636c13.4-4.34,23.46-22.63,23.46-44.54S847.59,551.31,834.19,547c-7.91,2.56-14.65,10-18.85,20.09,1.93,2.21,3,6.77.48,13.57-1.56,4.16-3.33,6.08-5,6.61-.09,1.4-.13,2.82-.13,4.27s0,2.86.13,4.26c1.65.53,3.42,2.44,5,6.6,2.56,6.8,1.45,11.37-.48,13.58,4.2,10.13,10.94,17.53,18.85,20.09Zm-6.13-66.28c-9.59,0-8.28-13.26-5-14.37a15.52,15.52,0,0,1,10,0c3.25,1.07,4.6,14.37-5,14.37Zm12.24,10.87c-4.79-12.77,3.33-17.66,5.59-13.86a43.53,43.53,0,0,1,5,13.35c1,4.87-5.79,13.33-10.6.51Zm0,21.74c4.8-12.77,11.61-4.4,10.6.51a43.39,43.39,0,0,1-5,13.36c-2.23,3.8-10.39-1-5.59-13.87Zm-7.22,25.25a15.52,15.52,0,0,1-10,0c-3.25-1.07-4.61-14.37,5-14.37S836.35,626.51,833.08,627.62Z"/><path class="cls-5" d="M836.36,636.61c14.47-3,25.64-22,25.64-45.11s-11.17-42.13-25.64-45.1c-8.45,1.73-15.77,8.94-20.4,19.23,3-1,8.28,4.15,4.21,15-3.12,8.3-7.09,7.68-9.2,4.88q-.26,2.94-.26,6t.26,6c2.12-2.8,6.08-3.44,9.2,4.87,4.06,10.84-1.15,16-4.21,15,4.63,10.29,11.95,17.51,20.4,19.24Zm-4-66.85c-9.6,0-8.29-13.26-5-14.37a15.52,15.52,0,0,1,10,0c3.25,1.07,4.61,14.37-5,14.37Zm12.24,10.87c-4.8-12.77,3.32-17.66,5.58-13.86a43.8,43.8,0,0,1,5,13.35c1,4.87-5.79,13.33-10.6.51Zm0,21.74c4.79-12.77,11.61-4.4,10.6.51a43.66,43.66,0,0,1-5,13.36c-2.22,3.8-10.39-1-5.58-13.87Zm-7.23,25.25a15.49,15.49,0,0,1-10,0c-3.26-1.07-4.61-14.37,5-14.37S840.69,626.51,837.42,627.62Z"/><path class="cls-7" d="M832.13,582.2c3.53,0,6.38,4.39,6.38,9.81s-2.85,9.81-6.38,9.81-6.38-4.39-6.38-9.81S828.6,582.2,832.13,582.2Z"/><path class="cls-9" d="M123.37,432.13c30.87-6.44,78.11-10.75,119.69-13.28,32.71-27.5,65.09-51.36,102.63-70,28.4-14.08,68-13.94,109.35-14.8,66.6-1.38,134.8-1.11,204.19,1.74a165.59,165.59,0,0,1,42.07,6.95,21.86,21.86,0,0,1,13.28,11c12.21,24.8,20.55,50.2,27.49,77.15l176.27.15c4.36,0,7.44,2.22,8.78,5.46l7.76,18.79c4.39,30.53,7.93,64.49,4.51,90.69L932.59,593h-35.5c.54-4.21,2.42-14.35.83-32.55-2.48-28.37-27.68-60.2-57.65-60.2-35.71,0-64.65,38.06-64.65,85q0,3.91.26,7.74H471.52c.54-4.21,3.65-14.36,2.06-32.55C471.11,532.05,444.67,499,414.7,499c-35.7,0-78.17,39.29-78.17,86.24q0,3.91.27,7.74H67.5c-5.17,0-7.63-4.91-7.69-9.83l-.64-58.82c.51-5.24,1.63-9.65,7.51-11.16l4-47.93c7.59-12.75,14.83-10.15,20.4-16.94a71.22,71.22,0,0,1,6.8-7.25C102,437.26,116.8,433.5,123.37,432.13Z"/><path class="cls-10" d="M683,351.34l-93.58-1.5c-23.41.61-51.15,1.75-62.4,13.55-15.16,15.47-30.76,30.52-42.61,48.79-5.8,8.95-1.66,18.78,9.37,18.78H680.27c12.2,0,27.34-9.39,34.33-16.36,1.82-1.81,2.74-3.66,1.76-6.75L701.7,362C699,353.56,694.5,351.53,683,351.34Z"/><path class="cls-10" d="M243.06,418.85c32.16-27,64-50.55,100.72-69H506.69c2.51,0,3.2,1.63,1.85,3.13l-56.37,63.1a9.09,9.09,0,0,1-6.6,2.79Z"/><path class="cls-11" d="M249.38,415.18c28.2-23.36,57.37-44.68,89.92-61.67H503.12l-53.7,60.1a5.46,5.46,0,0,1-3.85,1.57Zm340-61.66c-15.93.41-48.56.86-59.75,12.42-14.85,15.32-30.5,30.24-42.17,48.23-4.14,6.38-1.95,13.11,6.27,13.11H614.19a634.54,634.54,0,0,0-15-73.6l-9.79-.16Zm30.2.48,63.31,1c7.71.12,12.72.17,15.25,8.07L712.84,409c.47,1.47.22,2-.84,3-7.15,7.12-21.37,15.28-31.73,15.28H639.65A701.72,701.72,0,0,0,619.63,354Z"/><path class="cls-4" d="M249.38,415.18q8.67-7.19,17.48-14.09c50.65-10.38,107.75-16.23,168.18-16.23q19.92,0,39.32.84l-24.94,27.91a5.46,5.46,0,0,1-3.85,1.57Zm250.86-18a900,900,0,0,1,90.87-4.54q8.65,0,17.2.16,3.44,17.22,5.88,34.48H493.78c-8.22,0-10.41-6.73-6.27-13.11a169,169,0,0,1,12.73-17Zm139.41,30.1h40.62c10.36,0,24.58-8.16,31.73-15.28,1.06-1.06,1.31-1.56.84-3l-2.7-8.45c-25.15-3.43-51.47-5.81-78.66-7C634.49,404.83,637.21,416.14,639.65,427.28Z"/><path class="cls-12" d="M742.07,431h6.23a501.75,501.75,0,0,1,8,81.74c.26,26.82-2.13,54.37-7.9,80.26H742.1c5.88-25.82,8.32-53.4,8.06-80.21S747,458.62,742.07,431Z"/><path class="cls-13" d="M66.85,511.16c-3.29,0-.88-39,3.27-39,3.89.63,6.94,4.37,6.59,7.79L74,505.44c-.35,3.27-2.26,5.79-5.3,5.75Z"/><path class="cls-14" d="M472.19,593h-.67c.54-4.21,2.42-14.35.83-32.55-2.48-28.37-27.68-60.2-57.65-60.2-22.75,0-42.76,15.45-54.28,38.81-2,4-5,7.29-8.5,7.29l-10.78-.23c-4.65,0-4.39-5.08-3.68-7.11,13.29-37.83,42.42-64.06,76.2-64.06,38.88,0,71.24,41.2,69.86,78.12C482.73,573.93,474.61,586.53,472.19,593Z"/><path class="cls-14" d="M897.31,593h-.22c.54-4.21,2.42-14.35.83-32.55-2.48-28.37-27.68-60.2-57.65-60.2-35.71,0-64.65,38.06-64.65,85q0,3.91.26,7.74L760.3,546.09c12-41.61,42.62-71.18,78.48-71.18,38.88,0,71.24,41.2,69.86,78.12C907.85,573.93,899.73,586.53,897.31,593Z"/><path class="cls-4" d="M621,449h-24.7a3.76,3.76,0,0,0-3.76,3.75h0a3.76,3.76,0,0,0,3.76,3.75H621a3.76,3.76,0,0,0,3.77-3.75h0A3.76,3.76,0,0,0,621,449Z"/><path class="cls-4" d="M729,449h-24.7a3.77,3.77,0,0,0-3.77,3.75h0a3.77,3.77,0,0,0,3.77,3.75H729a3.77,3.77,0,0,0,3.77-3.75h0A3.77,3.77,0,0,0,729,449Z"/><path class="cls-14" d="M60.61,593H342.05c4.16,0,6.93-3.44,7.56-7.53l4.92-31.85c.63-4.1-3.41-7.54-7.57-7.54H60.61A7.59,7.59,0,0,0,53,553.58v4.67h4.24v22.51H53v4.67A7.58,7.58,0,0,0,60.61,593Z"/><path class="cls-4" d="M56.22,558.25v22.51H68.33a2.86,2.86,0,0,0,2.86-2.85V561.09a2.86,2.86,0,0,0-2.86-2.84Z"/><path class="cls-15" d="M541.75,393.86H515.17c-15.72,0-15.72,31.95,0,31.95h26.58a11.32,11.32,0,0,0,11.3-11.27v-9.41A11.32,11.32,0,0,0,541.75,393.86Z"/><path class="cls-15" d="M510.25,410.34l-16.4,1.09c-3.79.25-6.88,1.44-7.2,5.78-.59,8,7.71,12.57,15,10.76l10.37-2.6c2.24-.56,4.79-2,4.2-4.19l-1.74-6.65C513.87,412.3,512.55,410.19,510.25,410.34Z"/><path class="cls-9" d="M547.88,400h0a5.19,5.19,0,0,0-5.17,5.15v12.08a3.29,3.29,0,0,1-3.64,3.58H514.45c-4.73,0-4.73,5,0,5h27.3c6.85,0,11.3-5.17,11.3-11.61v-9.07A5.17,5.17,0,0,0,547.88,400Z"/><polygon class="cls-12" points="760.3 546.04 483.38 546.04 471.52 592.96 775.88 592.96 760.3 546.04"/><polygon class="cls-14" points="474.77 580.11 471.52 592.96 775.88 592.96 771.62 580.11 474.77 580.11"/><polygon class="cls-16" points="760.3 546.04 483.38 546.04 479.15 562.8 765.87 562.8 760.3 546.04"/><path class="cls-12" d="M236.74,460.88H99a12.39,12.39,0,0,0-12,10.74l-6,53.76a9.47,9.47,0,0,0,9.57,10.75H247.9c7.51,0,13.12-5.43,11.42-13.79L249,471.62C247.76,465.79,242.67,460.88,236.74,460.88Z"/><path class="cls-4" d="M236.74,460.88h-128a12.39,12.39,0,0,0-12,10.74l-6,53.76a9.46,9.46,0,0,0,9.57,10.75H247.9c7.51,0,13.12-5.43,11.42-13.79L249,471.62C247.76,465.79,242.67,460.88,236.74,460.88Z"/><path class="cls-5" d="M276.29,472.08l65.91-.52c5.81-.05,5.88,4,3.42,6.81l-24.14,27.18c-1.92,2.16-5.58,5.08-8.61,5.13l-31.32.51c-3,0-5.26-2.48-6-5.75L269.64,480C268.78,476.23,271.92,472.12,276.29,472.08Z"/><rect class="cls-17" x="78.36" y="487.85" width="179.23" height="21.3"/><path class="cls-18" d="M124.36,609.58H284.91l-37.63-24.72c-4.78-3.15-8.81-4.1-14.51-4.1H85.41A5.39,5.39,0,0,0,83.07,591l27.56,13.5C115.4,607.66,121.19,609.58,124.36,609.58Z"/><polygon class="cls-19" points="147.47 492.59 163.65 492.59 170.47 495.39 170.47 502.71 155.56 506.03 148.45 506.03 147.47 492.59"/><path class="cls-20" d="M116.94,609.58H275.33l-30.51-20.21c-4.77-3.15-8.81-4.1-12-4.1H83.23c-3.17,0-4.94,2.58-.16,5.73l19.43,12.84C107.27,607,113.77,609.58,116.94,609.58Z"/><polygon class="cls-20" points="134.77 495.4 141.59 492.59 157.78 492.59 164.59 495.4 164.59 502.71 149.68 506.03 134.77 502.71 134.77 495.4"/><path class="cls-21" d="M117.86,593.82c-8.83-5.62,7.84-2.75,12.15,0L141.35,601c8.81,5.62-7.83,2.75-12.15,0l-11.34-7.21Zm41.76,0c-8.83-5.62,7.84-2.75,12.15,0L183.11,601c8.81,5.62-7.83,2.75-12.15,0l-11.34-7.21Zm53.91,0L224.87,601c8.81,5.62-7.84,2.75-12.15,0l-11.35-7.21C192.55,588.2,209.22,591.07,213.53,593.82Z"/><path class="cls-12" d="M94.63,558.25h131.7a4.77,4.77,0,0,1,4.76,4.74v13a4.78,4.78,0,0,1-4.76,4.75H94.63A4.77,4.77,0,0,1,89.87,576V563A4.76,4.76,0,0,1,94.63,558.25Z"/><path class="cls-4" d="M102.44,558.25H226.33a4.77,4.77,0,0,1,4.76,4.74v13a4.78,4.78,0,0,1-4.76,4.75H102.44A4.78,4.78,0,0,1,97.68,576V563A4.76,4.76,0,0,1,102.44,558.25Z"/><path class="cls-12" d="M272.23,558.25h40.33a4.78,4.78,0,0,1,4.77,4.74v13a4.78,4.78,0,0,1-4.77,4.75H272.23a4.78,4.78,0,0,1-4.76-4.75V563A4.76,4.76,0,0,1,272.23,558.25Z"/><path class="cls-4" d="M280,558.25h32.52a4.78,4.78,0,0,1,4.77,4.74v13a4.78,4.78,0,0,1-4.77,4.75H280a4.78,4.78,0,0,1-4.76-4.75V563A4.76,4.76,0,0,1,280,558.25Z"/><path class="cls-20" d="M524.36,593h222a4.55,4.55,0,0,1,4.55,4.54h0a4.55,4.55,0,0,1-4.55,4.53h-222a4.56,4.56,0,0,1-4.55-4.53h0A4.56,4.56,0,0,1,524.36,593Z"/><path class="cls-21" d="M494.58,593h27.86A4.56,4.56,0,0,1,527,597.5h0a4.57,4.57,0,0,1-4.55,4.53H499.13a4.58,4.58,0,0,1-4.55-4.53Z"/><path class="cls-14" d="M923.68,593h13.19c4.34,0,10.09-11.27,10.09-12.85V559.7c0-3.56-4-13.66-7.57-13.66h-6.61a26.27,26.27,0,0,0-6.34,13.17l-6.82,23.33A17.63,17.63,0,0,0,923.68,593Z"/><polygon class="cls-22" points="934.88 455.35 930.17 455.35 927.22 459.68 929.62 478.44 938.42 483.32 941.41 478.04 938.78 459.09 934.88 455.35"/><path class="cls-23" d="M482.9,499.17a4.28,4.28,0,0,1,7.49-4.15l15.93,28.52,205.4,0,24.57-35.43a4.28,4.28,0,0,1,7.05,4.86l-25.85,37.27h0a4.28,4.28,0,0,1-3.52,1.84l-210,0a4.32,4.32,0,0,1-3.93-2.19Z"/><path class="cls-18" d="M289.74,563.29a6.28,6.28,0,1,1-6.3,6.27,6.29,6.29,0,0,1,6.3-6.27Zm23.46,6.27a6.3,6.3,0,1,1-6.29-6.27A6.28,6.28,0,0,1,313.2,569.56Z"/></g></svg>